<?xml version="1.0" encoding="utf-8"?>
<!-- Generator: Adobe Illustrator 18.0.0, SVG Export Plug-In . SVG Version: 6.00 Build 0)  -->
<!DOCTYPE svg PUBLIC "-//W3C//DTD SVG 1.1//EN" "http://www.w3.org/Graphics/SVG/1.1/DTD/svg11.dtd">
<svg version="1.1" id="Layer_1" xmlns="http://www.w3.org/2000/svg" xmlns:xlink="http://www.w3.org/1999/xlink" width="165" height="29" x="0px" y="0px"
	 viewBox="0 0 165 29" enable-background="new 0 0 165 29" xml:space="preserve">
<g>
	<g>
		<path fill="#FFFFFF" d="M119.5,23.2h-3c-1.3,0-1.9-0.4-2.3-1.5l-3-8.5H111l-2.4,9.9h-4.9l4.2-16.8h3.9c1.3,0,1.9,0.4,2.2,1.4
			l2.6,7.5h0.1l2.2-8.9h4.9L119.5,23.2z"/>
		<path fill="#FFFFFF" d="M129.5,17.3l0.9-3.5h8.4l-0.4,1.6c-1,4.2-2.2,5.7-3,6.5c-1.1,1.1-2.3,1.4-4,1.4H127c-2.1,0-3-0.4-3.5-0.9
			c-1.1-1.1-1.6-3.4-0.5-8c1-4.2,2.3-5.7,3-6.5c1.1-1.1,2.3-1.4,4-1.4h4.5c2.1,0,3.1,0.4,3.5,0.9c0.8,0.8,1.2,2.3,0.8,4.9h-4.9
			c0.2-1.2,0.1-1.6,0-1.7c-0.1-0.1-0.4-0.2-1.3-0.2h-1.9c-0.7,0-1,0-1.2,0.2c-0.2,0.2-0.6,0.7-1.5,4.3c-0.9,3.5-0.6,4.1-0.5,4.3
			c0.1,0.1,0.4,0.2,1.3,0.2h1.9c0.7,0,1-0.1,1.2-0.3c0.2-0.2,0.4-0.4,0.8-1.9H129.5z"/>
		<path fill="#FFFFFF" d="M137.9,23.2L142,6.5h5.2L143,23.2H137.9z"/>
		<path fill="#FFFFFF" d="M160.8,23.2h-3c-1.3,0-1.9-0.4-2.3-1.5l-3.1-8.5h-0.1l-2.5,9.9H145l4.2-16.8h3.9c1.3,0,1.9,0.4,2.2,1.4
			l2.6,7.5h0.1l2.2-8.9h4.9L160.8,23.2z"/>
	</g>
	<g>
		<path fill="#FFFFFF" d="M5.2,17.6c-0.4,1.2-0.4,1.5-0.2,1.7c0.2,0.2,0.4,0.2,1.2,0.2h2.3c0.6,0,0.8,0,1-0.2
			c0.1-0.1,0.3-0.3,0.4-0.9c0.1-0.6,0.1-0.9,0-1c-0.1-0.1-0.2-0.1-0.5-0.2l-5-1.1c-1.1-0.2-1.6-0.5-2-0.9c-0.8-0.7-0.9-2-0.4-4
			c0.5-2,1.2-3,1.9-3.7c0.7-0.7,1.8-1.1,3-1.1h6.1c1.5,0,2.4,0.3,2.9,0.8c0.8,0.8,0.8,2,0.2,4.7h-4.7c0.2-1,0.2-1.3,0-1.5
			c-0.2-0.2-0.4-0.2-1.2-0.2H8.3c-0.6,0-0.8,0-1,0.1c-0.1,0.1-0.2,0.4-0.4,0.9c-0.1,0.5-0.1,0.8,0,0.9c0.1,0.1,0.2,0.2,0.5,0.2
			l4.9,1c1.1,0.2,1.6,0.5,2.1,0.9c0.8,0.8,1,2,0.4,4.1c-0.5,2-1.3,3.1-1.9,3.8c-0.8,0.8-1.8,1.1-3.1,1.1H3.3c-1.4,0-2.3-0.3-2.8-0.8
			c-0.7-0.7-0.8-2.3,0-4.9H5.2z"/>
		<path fill="#FFFFFF" d="M30.1,16.8c-1,1-2.4,1.2-3.9,1.2h-4.8l-1.3,5.2h-5.2l4.2-16.8h8.6c2.2,0,3.3,0.3,4,1.1c1,1,1,2.5,0.5,5
			C31.7,14.9,30.8,16.1,30.1,16.8z M23.3,10.2l-1,4h2.4c0.9,0,1.3,0,1.5-0.3c0.2-0.2,0.4-0.6,0.7-1.7c0.3-1.2,0.2-1.5,0-1.7
			c-0.2-0.2-0.4-0.2-1.5-0.2H23.3z"/>
		<path fill="#FFFFFF" d="M36.1,23.2c-2.1,0-3-0.4-3.5-0.9c-1.1-1.1-1.6-3.4-0.5-8c1-4.2,2.3-5.7,3-6.5c1.1-1.1,2.3-1.4,4-1.4h4.4
			c2.1,0,3,0.4,3.5,0.9c1.1,1.1,1.6,3.4,0.5,8c-1,4.2-2.3,5.7-3,6.5c-1.1,1.1-2.3,1.4-4,1.4H36.1z M36.8,19.1
			c0.1,0.1,0.4,0.2,1.2,0.2h1.6c0.7,0,1,0,1.2-0.2c0.2-0.2,0.6-0.6,1.5-4.3c0.9-3.5,0.6-4.1,0.5-4.3c-0.1-0.1-0.4-0.2-1.2-0.2H40
			c-0.7,0-1,0-1.2,0.2c-0.2,0.2-0.6,0.6-1.5,4.3C36.4,18.4,36.7,19,36.8,19.1z"/>
		<path fill="#FFFFFF" d="M62.2,23.2h-5.3c0.1-1,0.3-2.1,0.6-3.4c0.3-1.4,0.2-1.8-0.1-2.1c-0.2-0.2-0.5-0.3-1.6-0.3h-2.1l-1.4,5.8
			h-5.2l4.2-16.8h9.8c1.8,0,2.9,0.3,3.6,1.1c0.6,0.9,0.7,2.2,0.2,4.2c-0.7,2.7-1.9,3.5-3.8,3.9v0c1.7,0.5,2.3,1.2,1.8,3.7
			C62.5,20.9,62.3,22.3,62.2,23.2z M55.5,10.3l-0.9,3.6h2.6c0.9,0,1.3,0,1.5-0.3c0.2-0.2,0.4-0.6,0.6-1.4c0.2-0.9,0.2-1.4-0.1-1.6
			c-0.2-0.2-0.4-0.2-1.5-0.2H55.5z"/>
		<path fill="#FFFFFF" d="M75.8,10.4l-3.2,12.9h-5.2l3.2-12.9h-4.9l1-3.9h15l-1,3.9H75.8z"/>
	</g>
	<g>
		<g>
			<path fill="#FFFFFF" d="M84.9,11.4c0.4,0,0.8-0.1,1.2-0.3l1.3,1.1c0.3-0.4,0.6-0.7,0.9-1l-0.9-1.3c0.2-0.3,0.3-0.6,0.4-0.9
				c0.3-1.4-0.5-2.5-1.9-2.5c-1.3,0-2.7,1.1-3,2.4C82.7,10.3,83.6,11.4,84.9,11.4z M95.2,11.6l4.7-3.3c0.5,0.3,1.2,0.5,1.9,0.5
				c2.4,0,4.8-1.9,5.3-4.3c0.6-2.4-0.9-4.4-3.3-4.4c-2.4,0-4.8,1.9-5.3,4.3c-0.2,0.9-0.1,1.7,0.1,2.4l-4,4.1
				C94.8,11.1,95,11.3,95.2,11.6z M86.5,17.1l-2.4,1.4c-0.3-0.2-0.6-0.3-1-0.3c-1.3,0-2.7,1.1-3,2.4c-0.3,1.4,0.5,2.5,1.9,2.5
				c1.3,0,2.7-1.1,3-2.4c0.1-0.4,0.1-0.8,0-1.2l2-1.7C86.8,17.7,86.6,17.4,86.5,17.1z M98.3,20.2c-0.5,0-0.9,0.1-1.4,0.2l-3.1-2.8
				c-0.4,0.4-0.9,0.7-1.4,1l1.5,3.8c-0.5,0.6-0.9,1.4-1,2.1C92.5,27,94,29,96.3,29c2.4,0,4.8-1.9,5.3-4.4
				C102.2,22.2,100.7,20.2,98.3,20.2z"/>
			<path fill="#FFFFFF" d="M94,14.6c-0.4,1.7-2.1,3.1-3.8,3.1c-1.7,0-2.7-1.4-2.3-3.1c0.4-1.7,2.1-3.1,3.8-3.1
				C93.3,11.5,94.4,12.9,94,14.6z"/>
		</g>
	</g>
</g>
</svg>
