<?xml version="1.0" encoding="utf-8"?>
<!-- Generator: Adobe Illustrator 19.2.1, SVG Export Plug-In . SVG Version: 6.00 Build 0)  -->
<svg version="1.1" id="Layer_1" xmlns="http://www.w3.org/2000/svg" xmlns:xlink="http://www.w3.org/1999/xlink" x="0px" y="0px"
	 viewBox="0 0 370.6 375.8" style="enable-background:new 0 0 370.6 375.8;" xml:space="preserve">
<style type="text/css">
	.st0{fill:#FFFFFF;}
</style>
<g>
	<path class="st0" d="M331.1,171c-0.2-2.4-0.5-4.6-0.7-6.5c-0.3-1.9-0.5-3.6-0.8-4.9c-0.4-2.4-0.7-3.7-0.7-3.7
		c0-0.2-0.1-0.4-0.1-0.6c0-0.2-0.1-0.4-0.2-0.6c-7.5-30.1-23.5-54-45.3-67.3c-16.7-10.2-35.9-13.4-54.1-8.9L166,94.1
		c-0.7,0.1-1.3,0.2-2.1,0.4l-28.5,7.1c-4.4,1.1-9.8,3.6-13.9,6.4c-4.1,2.8-7.9,6-11.2,9.6c-3.3,3.6-6.1,7.5-8.3,11.7
		c-2.2,4.2-3.6,8.2-4.1,12.2c-0.6,4.4-0.3,8.2,0.9,11.5c1.2,3.3,3.1,5.9,5.7,7.9c2.5,2,5.7,3.2,9.3,3.8c3.6,0.6,7.6,0.4,11.8-0.6
		l11.5-3c2.5-0.5,4.6-0.2,6.3,1.1c1.7,1.3,2.3,3.2,2,5.9c-0.4,2.6-1.7,5-3.9,7.3c-2.2,2.3-4.7,3.8-7.2,4.5l-35.7,9.4
		c-1.7,0.4-3.3,1.2-4.8,2.1c-14,7.6-12.6,23.3-12.6,23.3l43.3-11.5l6.6-1.7c4.4-1.3,8.7-3.2,12.8-5.9c2.8-1.8,5.4-3.8,7.8-6.1
		l-4.5,31.5l-5.3,36.7c0,0,19.9-1.4,24.2-22.9c0.1-0.5,0.2-1,0.2-1.5c0.4-1,0.6-2,0.8-3l0.9-5l17.9-4.6c5.5-1.4,10.9-3.8,16.1-7.1
		c0.6-0.4,1.1-0.7,1.6-1.1c-0.1,0.4-0.2,0.8-0.2,1.2c-0.6,4.4-0.3,8.2,0.9,11.5c1.3,3.3,3.1,5.9,5.7,7.9c2.6,2,5.7,3.2,9.3,3.8
		c3.6,0.6,7.6,0.4,11.8-0.6l11.5-3c2.5-0.5,4.7-0.2,6.3,1.1c1.7,1.3,2.3,3.2,2,5.9c-0.4,2.6-1.7,5-3.9,7.3c-2.2,2.3-4.7,3.8-7.2,4.5
		l-41.8,10.3c0,0-0.1,0-0.1,0l-61.6,15c-13.1,3.2-26.6,0.9-38.8-6.5c-17.4-10.6-30.3-30.4-36.4-55.7c0,0,0-0.1,0-0.1
		c-0.1-0.5-0.4-1.6-0.8-3.3c-0.2-1.1-0.5-2.4-0.9-3.9c-0.3-1.6-0.7-3.4-1-5.5c-0.6-4.2-1.2-9.3-1.4-15.1c-0.2-5.9,0-12.6,0.9-19.8
		c0.9-7.2,2.5-15,5-23c2.5-8,6-16.2,10.6-24.2c4.6-8,10.1-15.8,16.7-23l1.2-1.4l0.2-0.2c-0.2,0.2,0,0,0,0l0.1-0.1l0.3-0.3l0.7-0.7
		l2.7-2.7c0.9-1,1.8-1.7,2.7-2.6l2.7-2.5c1.8-1.6,3.8-3.2,5.7-4.8c2-1.5,3.9-3,6-4.4c8.2-5.7,17-10.4,26.2-14.1
		c9.2-3.7,18.7-6,28.1-7.5c1.2-0.2,2.3-0.3,3.5-0.5c0.6-0.1,1.3-0.2,1.9-0.2c1.6-0.3,2.7-1.7,2.5-3.3c-0.1-1.4-1.3-2.5-2.6-2.7
		c-0.8,0-1.6,0.1-2.4,0.1c-1.2,0.1-2.5,0.2-3.7,0.3c-9.9,0.9-20.1,2.8-30.1,6.1c-10,3.3-19.8,7.8-29,13.3c-2.3,1.4-4.5,2.9-6.8,4.4
		c-2.2,1.6-4.3,3.1-6.5,4.8l-3.2,2.6c-1.1,0.9-2.1,1.7-3.1,2.6L85,86l-0.7,0.6L83.9,87l-0.5,0.4L82,88.8
		c-7.6,7.4-14.3,15.6-19.9,24.2c-5.6,8.5-10,17.5-13.4,26.2c-3.4,8.8-5.8,17.4-7.3,25.5c-1.5,8.1-2.2,15.7-2.4,22.4
		c-0.2,6.7,0.1,12.6,0.6,17.5c0.2,2.4,0.5,4.6,0.7,6.5c0.3,1.9,0.5,3.6,0.8,4.8c0.4,2.4,0.7,3.7,0.7,3.7c0,0.2,0.1,0.4,0.1,0.6
		c0,0.2,0.1,0.4,0.2,0.5c7.5,30.1,23.5,54,45.3,67.3c11.8,7.2,24.8,10.9,37.8,10.9c5.4,0,10.9-0.6,16.3-1.9l52.3-12.7
		c0.5-0.1,1-0.2,1.6-0.3l17.9-4.4l6.5-1.6c0.2,0,0.3-0.1,0.5-0.1l17-4.2c4.4-1.3,8.7-3.2,12.8-5.9c4.1-2.7,7.8-5.7,11.1-9.3
		c3.3-3.5,6-7.4,8.2-11.5c2.2-4.2,3.6-8.3,4.2-12.5c0.6-4.3,0.3-8.1-0.9-11.4c-1.2-3.3-3.2-6-5.7-8.1c-2.6-2.1-5.7-3.4-9.3-4
		c-3.6-0.6-7.4-0.4-11.5,0.7l-11.3,2.9c-2.7,0.7-4.8,0.4-6.4-0.9c-1.6-1.3-2.3-3.2-2-5.6c0.5-2.8,1.8-5.4,3.9-7.7
		c2.1-2.3,4.5-3.9,7.1-4.5l39.1-10c1.6-0.4,3.1-1.1,4.5-1.9c14.2-7.4,12.9-23.3,12.9-23.3l-12.9,3.3c-0.5,0.1-0.9,0.2-1.4,0.3
		l-39.1,10c-3.3,0.8-6.5,2.2-9.7,3.9c0.7-2.3,1.2-4.6,1.5-6.9c0.8-5.3,0.4-10.1-1-14.3c-1.4-4.2-3.7-7.6-6.9-10.2
		c-3.2-2.6-7-4.3-11.7-5c-4.6-0.8-9.7-0.4-15.3,1l-29.1,7.5c-0.5,0.1-1.1,0.3-1.6,0.5c0,0,0,0,0-0.1c-1.2-3.3-3.1-6-5.7-8.1
		c-2.6-2.1-5.7-3.4-9.3-4c-3.6-0.6-7.4-0.4-11.5,0.7l-11.3,2.9c-2.7,0.7-4.8,0.4-6.4-0.9c-1.6-1.3-2.3-3.1-2-5.6
		c0.5-2.8,1.8-5.4,3.9-7.7c2.1-2.3,4.5-3.9,7.1-4.5l22.9-5.9L234,98.2c13.1-3.2,26.6-0.9,38.8,6.5c17.4,10.6,30.3,30.4,36.4,55.7
		c0,0,0,0,0,0.1c0.1,0.5,0.4,1.6,0.8,3.3c0.2,1.1,0.5,2.4,0.9,4c0.3,1.6,0.7,3.5,1,5.5c0.6,4.2,1.2,9.3,1.4,15.2
		c0.2,5.9,0,12.6-0.9,19.8c-0.9,7.2-2.5,15-5.1,23.1c-2.6,8-6.1,16.2-10.7,24.3c-4.6,8-10.2,15.9-16.8,23.1l-1.2,1.3l-1.3,1.4
		c-0.9,1-1.8,1.8-2.6,2.6c-1.7,1.7-3.6,3.4-5.4,5c-3.8,3.2-7.7,6.2-11.9,9c-8.3,5.6-17.3,10.2-26.6,13.7c-9.3,3.6-18.8,6.1-28.2,7.6
		c-2.4,0.4-4.7,0.7-7.1,1c-1.3,0.4-2.2,1.8-2.1,3.2c0.1,1.4,1.2,2.5,2.5,2.7c2.5-0.1,5-0.3,7.5-0.6c9.9-1.1,20-3.1,30.1-6.2
		c10-3.2,19.9-7.4,29.3-12.9c4.7-2.7,9.2-5.7,13.5-9c2.1-1.7,4.2-3.3,6.3-5.1c1-0.9,2.1-1.8,3-2.7l1.4-1.3l1.5-1.5
		c7.7-7.4,14.4-15.6,20-24.2c5.6-8.6,10.1-17.5,13.5-26.3c3.4-8.8,5.8-17.5,7.3-25.6c1.6-8.1,2.2-15.7,2.4-22.5
		C331.8,181.7,331.5,175.8,331.1,171z M176.2,169l17.9-4.6c2.4-0.6,4.7-0.8,6.8-0.4c2.1,0.3,3.8,1.1,5.3,2.3
		c1.4,1.2,2.5,2.7,3.1,4.6c0.6,1.9,0.8,4,0.5,6.4c-0.3,2.5-1.1,4.8-2.4,7.2c-1.2,2.3-2.8,4.5-4.7,6.5c-1.9,2-4,3.8-6.3,5.3
		s-4.7,2.5-7.2,3.2l-18,4.6L176.2,169z"/>
</g>
</svg>
